<svg width="512" height="512" viewBox="0 0 512 512" fill="none" xmlns="http://www.w3.org/2000/svg">
<path d="M191.998 391.925H143.998V455.925H191.998V391.925Z" fill="#CBBBA0"/>
<path d="M368.001 391.925H320.001V455.925H368.001V391.925Z" fill="#CBBBA0"/>
<path d="M512.001 455.925H0V511.921H512.001V455.925Z" fill="#FAC15C"/>
<path d="M64.001 72.081H48.001V87.775H64.001V72.081Z" fill="#F9B233"/>
<path d="M64.001 96.082H48.001V111.776H64.001V96.082Z" fill="#F9B233"/>
<path d="M64.001 176.08H48.001V191.774H64.001V176.08Z" fill="#F9B233"/>
<path d="M64.001 200.081H48.001V215.775H64.001V200.081Z" fill="#F9B233"/>
<path d="M464.001 72.081H448.001V87.775H464.001V72.081Z" fill="#F9B233"/>
<path d="M464.001 96.082H448.001V111.776H464.001V96.082Z" fill="#F9B233"/>
<path d="M464.001 176.08H448.001V191.774H464.001V176.08Z" fill="#F9B233"/>
<path d="M464.001 200.081H448.001V215.775H464.001V200.081Z" fill="#F9B233"/>
<path d="M375.847 448.081V384.081H351.847V231.774H439.846V175.927H424.152V216.08H351.847V127.774H439.846V71.927H424.152V112.08H351.847V0.0800018H160.153V112.08H87.848V71.927H72.154V127.774H160.153V216.08H87.848V175.927H72.154V231.774H160.153V384.08H136.153V448.08H0V463.774H512V448.08H375.847V448.081ZM360.153 448.081H327.847V399.775H360.153V448.081ZM271.425 171.927L336.153 133.679V210.176L271.425 171.927ZM315.296 216.08H196.704L256 181.042L315.296 216.08ZM315.296 127.774L256 162.812L196.704 127.774C196.703 127.774 315.296 127.774 315.296 127.774ZM196.704 112.08L255.999 77.042L315.294 112.08H196.704ZM271.425 67.927L336.153 29.679V106.176L271.425 67.927ZM256.001 58.812L183.166 15.774H328.835L256.001 58.812ZM240.575 67.927L175.847 106.175V29.679L240.575 67.927ZM240.575 171.927L175.847 210.175V133.678L240.575 171.927ZM196.704 231.774H315.295L255.999 266.812L196.704 231.774ZM240.575 275.927L175.847 314.175V237.678L240.575 275.927ZM336.153 237.679V314.176L271.425 275.928L336.153 237.679ZM175.847 332.406L255.999 285.043L336.151 332.406V384.081H312.153V448.081H199.847V384.081H175.848V332.406H175.847ZM151.848 399.775H184.154V448.081H151.848V399.775Z" fill="white"/>
<path d="M80.001 480.083H32V495.777H80.001V480.083Z" fill="#1D1D1B"/>
<path d="M280.002 480.083H160.006V495.777H280.002V480.083Z" fill="#1D1D1B"/>
<path d="M343.999 496.081H295.999V511.775H343.999V496.081Z" fill="#1D1D1B"/>
<path d="M415.995 480.083H359.999V495.777H415.995V480.083Z" fill="#1D1D1B"/>
<path d="M448.005 480.083H432.004V495.777H448.005V480.083Z" fill="#1D1D1B"/>
</svg>
