<svg width="108" height="136" viewBox="0 0 108 136" fill="none" xmlns="http://www.w3.org/2000/svg">
<path d="M28.89 23.7875L16.875 17.7125L25.38 0.5H82.5525L91.125 17.7125L79.11 23.72L74.25 14H33.75L28.89 23.7875ZM98.685 41H68.1075L62.775 20.75H45.225L39.8925 41H9.31499L0.674988 58.2125L12.7575 64.22L17.685 54.5H90.315L95.175 64.2875L107.257 58.28L98.685 41ZM92.9475 135.5H78.975L77.355 129.425L54 94.325L30.5775 129.425L29.025 135.5H15.0525L34.56 61.25H48.5325L46.1025 70.3625L54 82.175L61.83 70.3625L59.4675 61.25H73.44L92.9475 135.5ZM49.95 88.25L43.875 79.1375L35.91 109.377L49.95 88.25ZM72.09 109.31L64.125 79.07L58.05 88.25L72.09 109.31Z" fill="white"/>
</svg>
